HIERARCHY
ROOT Hips
{
  OFFSET 5.84602e-005 68.8428 3.50346
  CHANNELS 6 Xposition Yposition Zposition Zrotation Xrotation Yrotation
  JOINT Spine
  {
    OFFSET 0 8.597 -4.6522
    CHANNELS 3 Zrotation Xrotation Yrotation
    JOINT Spine1
    {
      OFFSET 0 7.8454 0.4098
      CHANNELS 3 Zrotation Xrotation Yrotation
      JOINT Spine2
      {
        OFFSET 0 9.7078 -2.1609
        CHANNELS 3 Zrotation Xrotation Yrotation
        JOINT Neck
        {
          OFFSET 0 21.8761 -0.4549
          CHANNELS 3 Zrotation Xrotation Yrotation
          JOINT Head
          {
            OFFSET 0 12.3537 3.3602
            CHANNELS 3 Zrotation Xrotation Yrotation
            End Site
            {
              OFFSET 0.0001 18.9506 0.5657
            }
          }
        }
        JOINT LeftShoulder
        {
          OFFSET 2.2086 21.1115 7.2329
          CHANNELS 3 Zrotation Xrotation Yrotation
          JOINT LeftArm
          {
            OFFSET 13.1193 3.0282 -4.8998
            CHANNELS 3 Zrotation Xrotation Yrotation
            JOINT LeftForeArm
            {
              OFFSET 27.4081 -0.0973053 -0.2375
              CHANNELS 3 Zrotation Xrotation Yrotation
              JOINT LeftHand
              {
                OFFSET 22.8641 0.0662994 -0.1369
                CHANNELS 3 Zrotation Xrotation Yrotation
                JOINT LeftHandIndex1
                {
                  OFFSET 8.8614 0.775009 2.4612
                  CHANNELS 3 Zrotation Xrotation Yrotation
                  JOINT LeftHandIndex2
                  {
                    OFFSET 3.3146 -0.808304 0.5841
                    CHANNELS 3 Zrotation Xrotation Yrotation
                    JOINT LeftHandIndex3
                    {
                      OFFSET 2.2628 -0.552002 0.3989
                      CHANNELS 3 Zrotation Xrotation Yrotation
                      End Site
                      {
                        OFFSET 1.6102 -0.4807 0.2612
                      }
                    }
                  }
                }
                JOINT LeftHandMiddle1
                {
                  OFFSET 8.9937 0.895004 0.2143
                  CHANNELS 3 Zrotation Xrotation Yrotation
                  JOINT LeftHandMiddle2
                  {
                    OFFSET 4.0984 0.0113983 -0.0242
                    CHANNELS 3 Zrotation Xrotation Yrotation
                    JOINT LeftHandMiddle3
                    {
                      OFFSET 2.2716 0.00689697 -0.0138001
                      CHANNELS 3 Zrotation Xrotation Yrotation
                      End Site
                      {
                        OFFSET 2.0404 -0.1441 0.0027
                      }
                    }
                  }
                }
                JOINT LeftHandRing1
                {
                  OFFSET 8.5234 0.597198 -2.0164
                  CHANNELS 3 Zrotation Xrotation Yrotation
                  JOINT LeftHandRing2
                  {
                    OFFSET 3.7188 -0.188293 -0.2328
                    CHANNELS 3 Zrotation Xrotation Yrotation
                    JOINT LeftHandRing3
                    {
                      OFFSET 2.1191 -0.106598 -0.1332
                      CHANNELS 3 Zrotation Xrotation Yrotation
                      End Site
                      {
                        OFFSET 1.8737 -0.2304 -0.0886
                      }
                    }
                  }
                }
                JOINT LeftHandPinky1
                {
                  OFFSET 7.9094 -0.601089 -3.4825
                  CHANNELS 3 Zrotation Xrotation Yrotation
                  JOINT LeftHandPinky2
                  {
                    OFFSET 2.2874 -0.477005 -0.6314
                    CHANNELS 3 Zrotation Xrotation Yrotation
                    JOINT LeftHandPinky3
                    {
                      OFFSET 1.6774 -0.349396 -0.4633
                      CHANNELS 3 Zrotation Xrotation Yrotation
                      End Site
                      {
                        OFFSET 1.4888 -0.4091 -0.3416
                      }
                    }
                  }
                }
                JOINT LeftHandThumb1
                {
                  OFFSET 1.833 -1.3875 1.3896
                  CHANNELS 3 Zrotation Xrotation Yrotation
                  JOINT LeftHandThumb2
                  {
                    OFFSET 3.4129 -1.121 2.5732
                    CHANNELS 3 Zrotation Xrotation Yrotation
                    JOINT LeftHandThumb3
                    {
                      OFFSET 2.2474 -0.804199 1.6192
                      CHANNELS 3 Zrotation Xrotation Yrotation
                      End Site
                      {
                        OFFSET 1.6527 -0.5689 1.1317
                      }
                    }
                  }
                }
              }
            }
          }
        }
        JOINT RightShoulder
        {
          OFFSET -2.2086 21.1115 7.2329
          CHANNELS 3 Zrotation Xrotation Yrotation
          JOINT RightArm
          {
            OFFSET -13.1216 3.0287 -4.9007
            CHANNELS 3 Zrotation Xrotation Yrotation
            JOINT RightForeArm
            {
              OFFSET -27.4081 -0.0973053 -0.2375
              CHANNELS 3 Zrotation Xrotation Yrotation
              JOINT RightHand
              {
                OFFSET -22.8641 0.0664063 -0.1369
                CHANNELS 3 Zrotation Xrotation Yrotation
                JOINT RightHandIndex1
                {
                  OFFSET -8.8614 0.774994 2.4612
                  CHANNELS 3 Zrotation Xrotation Yrotation
                  JOINT RightHandIndex2
                  {
                    OFFSET -3.3146 -0.808304 0.5841
                    CHANNELS 3 Zrotation Xrotation Yrotation
                    JOINT RightHandIndex3
                    {
                      OFFSET -2.2628 -0.552002 0.3989
                      CHANNELS 3 Zrotation Xrotation Yrotation
                      End Site
                      {
                        OFFSET -1.6102 -0.4807 0.2612
                      }
                    }
                  }
                }
                JOINT RightHandMiddle1
                {
                  OFFSET -8.9937 0.894989 0.2143
                  CHANNELS 3 Zrotation Xrotation Yrotation
                  JOINT RightHandMiddle2
                  {
                    OFFSET -4.0984 0.0113983 -0.0242
                    CHANNELS 3 Zrotation Xrotation Yrotation
                    JOINT RightHandMiddle3
                    {
                      OFFSET -2.2716 0.00691223 -0.0138001
                      CHANNELS 3 Zrotation Xrotation Yrotation
                      End Site
                      {
                        OFFSET -2.0404 -0.1441 0.0027
                      }
                    }
                  }
                }
                JOINT RightHandRing1
                {
                  OFFSET -8.5234 0.597198 -2.0164
                  CHANNELS 3 Zrotation Xrotation Yrotation
                  JOINT RightHandRing2
                  {
                    OFFSET -3.7188 -0.188309 -0.2328
                    CHANNELS 3 Zrotation Xrotation Yrotation
                    JOINT RightHandRing3
                    {
                      OFFSET -2.1191 -0.106598 -0.1332
                      CHANNELS 3 Zrotation Xrotation Yrotation
                      End Site
                      {
                        OFFSET -1.8737 -0.2304 -0.0886
                      }
                    }
                  }
                }
                JOINT RightHandPinky1
                {
                  OFFSET -7.9094 -0.601105 -3.4825
                  CHANNELS 3 Zrotation Xrotation Yrotation
                  JOINT RightHandPinky2
                  {
                    OFFSET -2.2874 -0.477005 -0.6314
                    CHANNELS 3 Zrotation Xrotation Yrotation
                    JOINT RightHandPinky3
                    {
                      OFFSET -1.6774 -0.349396 -0.4633
                      CHANNELS 3 Zrotation Xrotation Yrotation
                      End Site
                      {
                        OFFSET -1.4888 -0.4091 -0.3416
                      }
                    }
                  }
                }
                JOINT RightHandThumb1
                {
                  OFFSET -1.833 -1.38751 1.3896
                  CHANNELS 3 Zrotation Xrotation Yrotation
                  JOINT RightHandThumb2
                  {
                    OFFSET -3.41299 -1.12099 2.5732
                    CHANNELS 3 Zrotation Xrotation Yrotation
                    JOINT RightHandThumb3
                    {
                      OFFSET -2.24741 -0.804108 1.6192
                      CHANNELS 3 Zrotation Xrotation Yrotation
                      End Site
                      {
                        OFFSET -1.6527 -0.5689 1.1317
                      }
                    }
                  }
                }
              }
            }
          }
        }
      }
    }
  }
  JOINT RightUpLeg
  {
    OFFSET -9.1966 3.8861 -0.7581
    CHANNELS 3 Zrotation Xrotation Yrotation
    JOINT RightLeg
    {
      OFFSET -0.7359 -41.0265 0
      CHANNELS 3 Zrotation Xrotation Yrotation
      JOINT RightFoot
      {
        OFFSET 0 -40.2855 0
        CHANNELS 3 Zrotation Xrotation Yrotation
        JOINT RightToeBase
        {
          OFFSET 0 -5.6122 11.7359
          CHANNELS 3 Zrotation Xrotation Yrotation
          End Site
          {
            OFFSET 0 0 7.8731
          }
        }
      }
    }
  }
  JOINT LeftUpLeg
  {
    OFFSET 9.1965 3.8864 -0.7581
    CHANNELS 3 Zrotation Xrotation Yrotation
    JOINT LeftLeg
    {
      OFFSET 0.7359 -41.0268 0
      CHANNELS 3 Zrotation Xrotation Yrotation
      JOINT LeftFoot
      {
        OFFSET 0 -40.2855 0
        CHANNELS 3 Zrotation Xrotation Yrotation
        JOINT LeftToeBase
        {
          OFFSET 0 -5.6122 11.7359
          CHANNELS 3 Zrotation Xrotation Yrotation
          End Site
          {
            OFFSET 0 0 7.8731
          }
        }
      }
    }
  }
}
MOTION
Frames:	4
Frame Time:	0.0333333
-2.64983 32.1794 -23.1505 -0 -17.15 -0 2.84132 12.359 0.121749 5.86797 24.7082 -0.416667 5.86797 24.7082 -0.416668 -1.3945 0.904663 7.1543 5.63648 -24.3282 5.59794 12.9881 14.259 -47.2246 -44.2161 -49.9657 -18.4957 40.6124 -13.5106 -93.1492 -4.41445 -26.4574 -35.3827 1.59028e-015 1.59028e-015 -9.54166e-015 1.59028e-015 4.77083e-015 -3.18055e-015 8.82781e-032 1.59028e-015 -3.18055e-015 1.59028e-015 1.59028e-015 -9.54166e-015 -0.0146289 -9.07986e-005 4.40542e-006 1.59028e-015 3.18055e-015 -0 1.59028e-015 1.59028e-015 -9.54166e-015 -0.0187315 -0.0011757 6.60414e-005 4.77083e-015 -3.18055e-015 3.18055e-015 1.59028e-015 1.59028e-015 -9.54166e-015 -0.0122029 -0.00323034 0.000668754 -8.82781e-032 -1.59028e-015 -3.18055e-015 1.59028e-015 1.59028e-015 -9.54166e-015 1.59028e-015 4.77083e-015 -3.18055e-015 8.82781e-032 1.59028e-015 -3.18055e-015 -9.92719 4.55432 35.0925 27.4857 -51.5863 -2.74801 -28.3608 -14.5979 106.023 -1.58168 4.066 -9.04605 -2.69156e-007 3.22168e-007 7.5239e-008 -2.69156e-007 3.22168e-007 7.5239e-008 -2.69156e-007 3.22168e-007 7.5239e-008 -2.69156e-007 3.22168e-007 7.5239e-008 0.0150155 -9.08244e-005 2.93459e-006 -2.69154e-007 3.22177e-007 7.5197e-008 -2.69156e-007 3.22168e-007 7.5239e-008 0.0189946 -0.00119147 -5.56354e-005 8.23899e-007 7.13228e-007 3.53135e-006 -2.69156e-007 3.22168e-007 7.5239e-008 0.0122632 -0.00324661 -0.000674279 -2.69154e-007 3.22173e-007 7.52121e-008 -2.69156e-007 3.22168e-007 7.5239e-008 -2.69156e-007 3.22168e-007 7.5239e-008 -2.69156e-007 3.22168e-007 7.5239e-008 -12.927 2.30598 -9.07485 -151 79.4899 154.504 -19.7119 52.3251 -1.5931 -1.72943e-007 -5.19485e-008 1.87983e-006 11.8855 2.9891 9.09171 151.303 79.6814 -154.75 20.0121 53.9724 2.07725 -2.36971e-008 1.51545e-006 -2.12279e-006 
-2.64983 32.1749 -23.3199 -0 -17.1079 -0 2.99212 12.6223 0.120399 6.19101 25.2327 -0.47239 6.19101 25.2328 -0.472392 -1.51876 1.07398 7.59369 5.63083 -24.1699 5.61854 13.0719 13.5955 -46.503 -44.2161 -49.9657 -18.4957 40.5577 -14.1186 -93.9589 -4.09224 -26.77 -35.0601 7.95139e-015 1.59028e-015 6.36111e-015 -1.59028e-015 0 -3.18055e-015 9.54166e-015 -7.95139e-015 -0 7.95139e-015 1.59028e-015 6.36111e-015 -0.0146055 -8.83227e-005 -3.46701e-006 3.18055e-015 0 -3.18055e-015 7.95139e-015 1.59028e-015 6.36111e-015 -0.0187109 -0.00117431 5.99969e-005 -6.36111e-015 -9.54166e-015 -9.54166e-015 7.95139e-015 1.59028e-015 6.36111e-015 -0.0122014 -0.00322951 0.000670502 3.18055e-015 -1.59028e-015 -9.54166e-015 7.95139e-015 1.59028e-015 6.36111e-015 -1.59028e-015 0 -3.18055e-015 9.54166e-015 -7.95139e-015 -0 -10.4442 3.36684 34.0792 26.9152 -51.4587 -3.75606 -27.4651 -15.0876 107.727 -1.33405 3.50766 -9.26391 2.67107e-007 -3.23531e-007 -7.62704e-008 2.67107e-007 -3.23531e-007 -7.62704e-008 1.59028e-015 -1.98785e-015 -1.59028e-015 2.67107e-007 -3.23531e-007 -7.62704e-008 0.0149693 -8.96388e-005 -2.88115e-006 0 7.95139e-016 -0 2.67107e-007 -3.23531e-007 -7.62704e-008 0.0190144 -0.0011902 -5.42075e-005 1.0926e-006 4.66255e-007 3.37424e-006 2.67107e-007 -3.23531e-007 -7.62704e-008 0.0122502 -0.00324399 -0.000664823 1.59028e-015 -1.98785e-015 1.59028e-015 2.67107e-007 -3.23531e-007 -7.62704e-008 2.67107e-007 -3.23531e-007 -7.62704e-008 1.59028e-015 -1.98785e-015 -1.59028e-015 -12.929 2.32387 -9.07128 -150.998 79.4905 154.502 -19.712 52.3253 -1.59294 -4.89224e-007 3.14673e-006 -1.40483e-007 11.8882 3.00698 9.08923 151.3 79.6822 -154.747 20.0069 53.9698 2.08082 1.04958e-007 3.22984e-006 2.65301e-007 
-2.64983 32.1704 -23.4893 -0 -17.0657 -0 3.1412 12.8866 0.117667 6.51225 25.7593 -0.532639 6.51225 25.7593 -0.532639 -1.64456 1.24222 8.03384 5.62506 -24.0116 5.63914 13.1641 12.9331 -45.7823 -44.2161 -49.9657 -18.4957 40.4939 -14.7253 -94.7723 -3.76697 -27.0812 -34.7345 -1.58292e-006 4.64303e-007 3.57854e-007 -7.15709e-007 -5.1559e-007 -3.16583e-006 -3.16583e-006 9.28606e-007 7.15709e-007 -1.58292e-006 4.64303e-007 3.57854e-007 -0.0146063 -9.09597e-005 -2.05369e-006 -3.1659e-006 9.28514e-007 7.1583e-007 -1.58292e-006 4.64303e-007 3.57854e-007 -0.0188027 -0.0011791 5.54533e-005 -3.16591e-006 9.28485e-007 7.15894e-007 -1.58292e-006 4.64303e-007 3.57854e-007 -0.0123074 -0.00325508 0.000671623 -3.16586e-006 9.28533e-007 7.15901e-007 -1.58292e-006 4.64303e-007 3.57854e-007 -7.15709e-007 -5.1559e-007 -3.16583e-006 -3.16583e-006 9.28606e-007 7.15709e-007 -10.9829 2.18619 33.0543 26.35 -51.3249 -4.75922 -26.5545 -15.549 109.44 -1.08867 2.94836 -9.47925 7.95092e-007 -9.74757e-007 -2.31489e-007 -7.95092e-007 9.74757e-007 2.31489e-007 2.65031e-007 -3.24919e-007 -7.71629e-008 7.95092e-007 -9.74757e-007 -2.31489e-007 0.0149642 -9.2048e-005 -1.91236e-006 2.65028e-007 -3.24929e-007 -7.71207e-008 7.95092e-007 -9.74757e-007 -2.31489e-007 0.0189817 -0.00118697 -6.60858e-005 2.65026e-007 -3.24931e-007 -7.71118e-008 7.95092e-007 -9.74757e-007 -2.31489e-007 0.0121742 -0.00322504 -0.000675362 2.65028e-007 -3.24925e-007 -7.71357e-008 7.95092e-007 -9.74757e-007 -2.31489e-007 -7.95092e-007 9.74757e-007 2.31489e-007 2.65031e-007 -3.24919e-007 -7.71629e-008 -12.931 2.34184 -9.06774 -150.995 79.4913 154.5 -19.7122 52.3257 -1.59272 1.59028e-015 0 -1.59028e-015 11.8908 3.02481 9.08677 151.298 79.6829 -154.745 20.0017 53.967 2.08449 -1.02479e-006 1.69268e-006 4.51463e-008 
-2.64982 32.1659 -23.6586 -0 -17.0236 -0 3.28852 13.1518 0.113562 6.83169 26.2877 -0.597437 6.83169 26.2877 -0.597438 -1.77188 1.40946 8.47472 5.61915 -23.8534 5.65972 13.2645 12.2718 -45.0622 -44.2161 -49.9657 -18.4957 40.421 -15.3318 -95.5878 -3.4386 -27.391 -34.4058 1.30986e-007 -6.22508e-007 -1.94866e-006 1.58596e-006 -4.60343e-007 -3.55949e-007 7.43077e-007 -3.35152e-007 -1.57921e-006 1.30986e-007 -6.22508e-007 -1.94866e-006 -0.0145866 -8.92452e-005 -2.31223e-006 1.31869e-007 -6.22254e-007 -1.94874e-006 1.30986e-007 -6.22508e-007 -1.94866e-006 -0.0187535 -0.00117874 6.15558e-005 1.32103e-007 -6.22117e-007 -1.94877e-006 1.30986e-007 -6.22508e-007 -1.94866e-006 -0.0123103 -0.0032595 0.000684895 7.42211e-007 -3.35203e-007 -1.57922e-006 1.30986e-007 -6.22508e-007 -1.94866e-006 1.58596e-006 -4.60343e-007 -3.55949e-007 7.43077e-007 -3.35152e-007 -1.57921e-006 -11.5432 1.01338 32.0169 25.7902 -51.1849 -5.75726 -25.63 -15.9847 111.159 -0.845503 2.38813 -9.6921 2.92369e-006 1.76625e-007 9.3352e-006 -1.83116e-006 -3.99081e-007 2.48755e-007 2.87353e-006 1.77714e-006 -2.63745e-007 2.92369e-006 1.76625e-007 9.3352e-006 0.0149796 -9.09633e-005 3.01573e-006 2.8736e-006 1.7771e-006 -2.6398e-007 2.92369e-006 1.76625e-007 9.3352e-006 0.019026 -0.00119444 -6.09376e-005 4.21359e-006 2.06343e-006 2.86559e-006 2.92369e-006 1.76625e-007 9.3352e-006 0.0122704 -0.00325021 -0.000666989 1.53267e-006 1.49067e-006 -3.39376e-006 2.92369e-006 1.76625e-007 9.3352e-006 -1.83116e-006 -3.99081e-007 2.48755e-007 2.87353e-006 1.77714e-006 -2.63745e-007 -12.933 2.35951 -9.06419 -150.993 79.4919 154.498 -19.7124 52.3262 -1.59251 -9.58523e-008 3.20919e-006 -2.9286e-007 11.8935 3.04282 9.08431 151.295 79.6839 -154.742 19.9965 53.9644 2.08805 -5.82918e-007 5.94763e-008 -1.5842e-006 
